solid OpenSCAD_Model
  facet normal 1 -0 0
    outer loop
      vertex 50 -58.5 8
      vertex 50 21.5 -8
      vertex 50 21.5 8
    endloop
  endfacet
  facet normal 1 0 0
    outer loop
      vertex 50 21.5 -8
      vertex 50 -58.5 8
      vertex 50 -58.5 -8
    endloop
  endfacet
  facet normal 0 0 1
    outer loop
      vertex -15.25 21.5 8
      vertex -50 21.5 8
      vertex -15.25 0 8
    endloop
  endfacet
  facet normal 0 0 1
    outer loop
      vertex 15.25 0 8
      vertex 50 21.5 8
      vertex 15.25 21.5 8
    endloop
  endfacet
  facet normal 0 0 1
    outer loop
      vertex 14.9168 -3.17065 8
      vertex 50 21.5 8
      vertex 15.25 0 8
    endloop
  endfacet
  facet normal 0 0 1
    outer loop
      vertex 13.9316 -6.20273 8
      vertex 50 21.5 8
      vertex 14.9168 -3.17065 8
    endloop
  endfacet
  facet normal 0 0 1
    outer loop
      vertex 50 21.5 8
      vertex 13.9316 -6.20273 8
      vertex 50 -58.5 8
    endloop
  endfacet
  facet normal -0 0 1
    outer loop
      vertex 12.3375 -8.96373 8
      vertex 50 -58.5 8
      vertex 13.9316 -6.20273 8
    endloop
  endfacet
  facet normal -0 0 1
    outer loop
      vertex 10.2042 -11.333 8
      vertex 50 -58.5 8
      vertex 12.3375 -8.96373 8
    endloop
  endfacet
  facet normal -0 0 1
    outer loop
      vertex 7.625 -13.2069 8
      vertex 50 -58.5 8
      vertex 10.2042 -11.333 8
    endloop
  endfacet
  facet normal -0 0 1
    outer loop
      vertex 4.71251 -14.5036 8
      vertex 50 -58.5 8
      vertex 7.625 -13.2069 8
    endloop
  endfacet
  facet normal -0 0 1
    outer loop
      vertex 1.59406 -15.1665 8
      vertex 50 -58.5 8
      vertex 4.71251 -14.5036 8
    endloop
  endfacet
  facet normal -0 0 1
    outer loop
      vertex -1.59406 -15.1665 8
      vertex 50 -58.5 8
      vertex 1.59406 -15.1665 8
    endloop
  endfacet
  facet normal 0 0 1
    outer loop
      vertex -50 -58.5 8
      vertex -1.59406 -15.1665 8
      vertex -4.71251 -14.5036 8
    endloop
  endfacet
  facet normal 0 0 1
    outer loop
      vertex -50 -58.5 8
      vertex -4.71251 -14.5036 8
      vertex -7.625 -13.2069 8
    endloop
  endfacet
  facet normal 0 0 1
    outer loop
      vertex -50 -58.5 8
      vertex -7.625 -13.2069 8
      vertex -10.2042 -11.333 8
    endloop
  endfacet
  facet normal 0 0 1
    outer loop
      vertex -50 21.5 8
      vertex -14.9168 -3.17065 8
      vertex -15.25 0 8
    endloop
  endfacet
  facet normal 0 0 1
    outer loop
      vertex -50 21.5 8
      vertex -13.9316 -6.20273 8
      vertex -14.9168 -3.17065 8
    endloop
  endfacet
  facet normal 0 0 1
    outer loop
      vertex -50 -58.5 8
      vertex -13.9316 -6.20273 8
      vertex -50 21.5 8
    endloop
  endfacet
  facet normal 0 0 1
    outer loop
      vertex -13.9316 -6.20273 8
      vertex -50 -58.5 8
      vertex -12.3375 -8.96373 8
    endloop
  endfacet
  facet normal 0 0 1
    outer loop
      vertex -1.59406 -15.1665 8
      vertex -50 -58.5 8
      vertex 50 -58.5 8
    endloop
  endfacet
  facet normal 0 0 1
    outer loop
      vertex -12.3375 -8.96373 8
      vertex -50 -58.5 8
      vertex -10.2042 -11.333 8
    endloop
  endfacet
  facet normal 0 0 -1
    outer loop
      vertex 13.9316 -6.20273 -8
      vertex 50 21.5 -8
      vertex 50 -58.5 -8
    endloop
  endfacet
  facet normal 0 0 -1
    outer loop
      vertex 50 21.5 -8
      vertex 14.9168 -3.17065 -8
      vertex 15.25 0 -8
    endloop
  endfacet
  facet normal 0 0 -1
    outer loop
      vertex 50 21.5 -8
      vertex 13.9316 -6.20273 -8
      vertex 14.9168 -3.17065 -8
    endloop
  endfacet
  facet normal 0 0 -1
    outer loop
      vertex 50 -58.5 -8
      vertex 12.3375 -8.96373 -8
      vertex 13.9316 -6.20273 -8
    endloop
  endfacet
  facet normal 0 0 -1
    outer loop
      vertex 50 -58.5 -8
      vertex 10.2042 -11.333 -8
      vertex 12.3375 -8.96373 -8
    endloop
  endfacet
  facet normal 0 0 -1
    outer loop
      vertex 50 -58.5 -8
      vertex 7.625 -13.2069 -8
      vertex 10.2042 -11.333 -8
    endloop
  endfacet
  facet normal 0 0 -1
    outer loop
      vertex 50 -58.5 -8
      vertex 4.71251 -14.5036 -8
      vertex 7.625 -13.2069 -8
    endloop
  endfacet
  facet normal 0 0 -1
    outer loop
      vertex 50 -58.5 -8
      vertex 1.59406 -15.1665 -8
      vertex 4.71251 -14.5036 -8
    endloop
  endfacet
  facet normal 0 0 -1
    outer loop
      vertex 50 -58.5 -8
      vertex -1.59406 -15.1665 -8
      vertex 1.59406 -15.1665 -8
    endloop
  endfacet
  facet normal 0 0 -1
    outer loop
      vertex -50 -58.5 -8
      vertex -1.59406 -15.1665 -8
      vertex 50 -58.5 -8
    endloop
  endfacet
  facet normal -0 0 -1
    outer loop
      vertex -1.59406 -15.1665 -8
      vertex -50 -58.5 -8
      vertex -4.71251 -14.5036 -8
    endloop
  endfacet
  facet normal -0 0 -1
    outer loop
      vertex -4.71251 -14.5036 -8
      vertex -50 -58.5 -8
      vertex -7.625 -13.2069 -8
    endloop
  endfacet
  facet normal -0 0 -1
    outer loop
      vertex -7.625 -13.2069 -8
      vertex -50 -58.5 -8
      vertex -10.2042 -11.333 -8
    endloop
  endfacet
  facet normal 0 0 -1
    outer loop
      vertex -50 -58.5 -8
      vertex -12.3375 -8.96373 -8
      vertex -10.2042 -11.333 -8
    endloop
  endfacet
  facet normal 0 0 -1
    outer loop
      vertex -50 -58.5 -8
      vertex -13.9316 -6.20273 -8
      vertex -12.3375 -8.96373 -8
    endloop
  endfacet
  facet normal 0 0 -1
    outer loop
      vertex -50 21.5 -8
      vertex -13.9316 -6.20273 -8
      vertex -50 -58.5 -8
    endloop
  endfacet
  facet normal 0 0 -1
    outer loop
      vertex -13.9316 -6.20273 -8
      vertex -50 21.5 -8
      vertex -14.9168 -3.17065 -8
    endloop
  endfacet
  facet normal 0 0 -1
    outer loop
      vertex -14.9168 -3.17065 -8
      vertex -50 21.5 -8
      vertex -15.25 0 -8
    endloop
  endfacet
  facet normal 0 0 -1
    outer loop
      vertex -15.25 0 -8
      vertex -50 21.5 -8
      vertex -15.25 31.5 -8
    endloop
  endfacet
  facet normal 0 0 -1
    outer loop
      vertex -80 31.5 -8
      vertex -50 21.5 -8
      vertex -80 21.5 -8
    endloop
  endfacet
  facet normal 0 0 -1
    outer loop
      vertex -50 21.5 -8
      vertex -80 31.5 -8
      vertex -15.25 31.5 -8
    endloop
  endfacet
  facet normal 0 0 -1
    outer loop
      vertex 50 21.5 -8
      vertex 80 31.5 -8
      vertex 80 21.5 -8
    endloop
  endfacet
  facet normal 0 0 -1
    outer loop
      vertex 50 21.5 -8
      vertex 15.25 31.5 -8
      vertex 80 31.5 -8
    endloop
  endfacet
  facet normal 0 0 -1
    outer loop
      vertex 15.25 31.5 -8
      vertex 50 21.5 -8
      vertex 15.25 0 -8
    endloop
  endfacet
  facet normal -1 0 0
    outer loop
      vertex -50 -58.5 -8
      vertex -50 21.5 8
      vertex -50 21.5 -8
    endloop
  endfacet
  facet normal -1 -0 0
    outer loop
      vertex -50 21.5 8
      vertex -50 -58.5 -8
      vertex -50 -58.5 8
    endloop
  endfacet
  facet normal 0 -1 0
    outer loop
      vertex -80 21.5 23
      vertex -50 21.5 8
      vertex -15.25 21.5 23
    endloop
  endfacet
  facet normal 0 -1 0
    outer loop
      vertex -80 21.5 -8
      vertex -50 21.5 8
      vertex -80 21.5 23
    endloop
  endfacet
  facet normal 0 -1 -0
    outer loop
      vertex -50 21.5 8
      vertex -80 21.5 -8
      vertex -50 21.5 -8
    endloop
  endfacet
  facet normal 0 -1 -0
    outer loop
      vertex -15.25 21.5 23
      vertex -50 21.5 8
      vertex -15.25 21.5 8
    endloop
  endfacet
  facet normal 0 -1 0
    outer loop
      vertex 50 21.5 8
      vertex 15.25 21.5 23
      vertex 15.25 21.5 8
    endloop
  endfacet
  facet normal 0 -1 0
    outer loop
      vertex 15.25 21.5 23
      vertex 50 21.5 8
      vertex 80 21.5 23
    endloop
  endfacet
  facet normal 0 -1 0
    outer loop
      vertex 80 21.5 -8
      vertex 50 21.5 8
      vertex 50 21.5 -8
    endloop
  endfacet
  facet normal 0 -1 0
    outer loop
      vertex 50 21.5 8
      vertex 80 21.5 -8
      vertex 80 21.5 23
    endloop
  endfacet
  facet normal 0 -1 0
    outer loop
      vertex -50 -58.5 -8
      vertex 50 -58.5 8
      vertex -50 -58.5 8
    endloop
  endfacet
  facet normal 0 -1 -0
    outer loop
      vertex 50 -58.5 8
      vertex -50 -58.5 -8
      vertex 50 -58.5 -8
    endloop
  endfacet
  facet normal 1 -0 0
    outer loop
      vertex 80 21.5 23
      vertex 80 31.5 -8
      vertex 80 31.5 23
    endloop
  endfacet
  facet normal 1 0 0
    outer loop
      vertex 80 31.5 -8
      vertex 80 21.5 23
      vertex 80 21.5 -8
    endloop
  endfacet
  facet normal -0 0 1
    outer loop
      vertex -80 31.5 23
      vertex -15.25 21.5 23
      vertex -15.25 31.5 23
    endloop
  endfacet
  facet normal 0 0 1
    outer loop
      vertex -15.25 21.5 23
      vertex -80 31.5 23
      vertex -80 21.5 23
    endloop
  endfacet
  facet normal -0 0 1
    outer loop
      vertex 15.25 31.5 23
      vertex 80 21.5 23
      vertex 80 31.5 23
    endloop
  endfacet
  facet normal 0 0 1
    outer loop
      vertex 80 21.5 23
      vertex 15.25 31.5 23
      vertex 15.25 21.5 23
    endloop
  endfacet
  facet normal -1 0 0
    outer loop
      vertex -80 21.5 -8
      vertex -80 31.5 23
      vertex -80 31.5 -8
    endloop
  endfacet
  facet normal -1 -0 0
    outer loop
      vertex -80 31.5 23
      vertex -80 21.5 -8
      vertex -80 21.5 23
    endloop
  endfacet
  facet normal 0 1 -0
    outer loop
      vertex -15.25 31.5 -8
      vertex -80 31.5 23
      vertex -15.25 31.5 23
    endloop
  endfacet
  facet normal 0 1 0
    outer loop
      vertex -80 31.5 23
      vertex -15.25 31.5 -8
      vertex -80 31.5 -8
    endloop
  endfacet
  facet normal 0 1 -0
    outer loop
      vertex 80 31.5 -8
      vertex 15.25 31.5 23
      vertex 80 31.5 23
    endloop
  endfacet
  facet normal 0 1 0
    outer loop
      vertex 15.25 31.5 23
      vertex 80 31.5 -8
      vertex 15.25 31.5 -8
    endloop
  endfacet
  facet normal -1 0 0
    outer loop
      vertex 15.25 31.5 -8
      vertex 15.25 21.5 8
      vertex 15.25 31.5 23
    endloop
  endfacet
  facet normal -1 0 0
    outer loop
      vertex 15.25 0 -8
      vertex 15.25 21.5 8
      vertex 15.25 31.5 -8
    endloop
  endfacet
  facet normal -1 -0 0
    outer loop
      vertex 15.25 21.5 8
      vertex 15.25 0 -8
      vertex 15.25 0 8
    endloop
  endfacet
  facet normal -1 -0 0
    outer loop
      vertex 15.25 31.5 23
      vertex 15.25 21.5 8
      vertex 15.25 21.5 23
    endloop
  endfacet
  facet normal 1 0 0
    outer loop
      vertex -15.25 21.5 8
      vertex -15.25 31.5 23
      vertex -15.25 21.5 23
    endloop
  endfacet
  facet normal 1 0 0
    outer loop
      vertex -15.25 31.5 23
      vertex -15.25 21.5 8
      vertex -15.25 31.5 -8
    endloop
  endfacet
  facet normal 1 0 0
    outer loop
      vertex -15.25 0 -8
      vertex -15.25 21.5 8
      vertex -15.25 0 8
    endloop
  endfacet
  facet normal 1 0 0
    outer loop
      vertex -15.25 21.5 8
      vertex -15.25 0 -8
      vertex -15.25 31.5 -8
    endloop
  endfacet
  facet normal 0.40673 0.913548 -0
    outer loop
      vertex -4.71251 -14.5036 -8
      vertex -7.625 -13.2069 8
      vertex -4.71251 -14.5036 8
    endloop
  endfacet
  facet normal 0.40673 0.913548 0
    outer loop
      vertex -7.625 -13.2069 8
      vertex -4.71251 -14.5036 -8
      vertex -7.625 -13.2069 -8
    endloop
  endfacet
  facet normal 0.743145 0.669131 0
    outer loop
      vertex -10.2042 -11.333 8
      vertex -12.3375 -8.96373 -8
      vertex -12.3375 -8.96373 8
    endloop
  endfacet
  facet normal 0.743145 0.669131 0
    outer loop
      vertex -12.3375 -8.96373 -8
      vertex -10.2042 -11.333 8
      vertex -10.2042 -11.333 -8
    endloop
  endfacet
  facet normal -0.994523 0.104513 0
    outer loop
      vertex 14.9168 -3.17065 -8
      vertex 15.25 0 8
      vertex 15.25 0 -8
    endloop
  endfacet
  facet normal -0.994523 0.104513 0
    outer loop
      vertex 15.25 0 8
      vertex 14.9168 -3.17065 -8
      vertex 14.9168 -3.17065 8
    endloop
  endfacet
  facet normal -0.866021 0.500008 0
    outer loop
      vertex 12.3375 -8.96373 -8
      vertex 13.9316 -6.20273 8
      vertex 13.9316 -6.20273 -8
    endloop
  endfacet
  facet normal -0.866021 0.500008 0
    outer loop
      vertex 13.9316 -6.20273 8
      vertex 12.3375 -8.96373 -8
      vertex 12.3375 -8.96373 8
    endloop
  endfacet
  facet normal 0.951055 0.309022 0
    outer loop
      vertex -13.9316 -6.20273 8
      vertex -14.9168 -3.17065 -8
      vertex -14.9168 -3.17065 8
    endloop
  endfacet
  facet normal 0.951055 0.309022 0
    outer loop
      vertex -14.9168 -3.17065 -8
      vertex -13.9316 -6.20273 8
      vertex -13.9316 -6.20273 -8
    endloop
  endfacet
  facet normal -0.207928 0.978144 0
    outer loop
      vertex 4.71251 -14.5036 -8
      vertex 1.59406 -15.1665 8
      vertex 4.71251 -14.5036 8
    endloop
  endfacet
  facet normal -0.207928 0.978144 0
    outer loop
      vertex 1.59406 -15.1665 8
      vertex 4.71251 -14.5036 -8
      vertex 1.59406 -15.1665 -8
    endloop
  endfacet
  facet normal 0.994523 0.104513 0
    outer loop
      vertex -14.9168 -3.17065 8
      vertex -15.25 0 -8
      vertex -15.25 0 8
    endloop
  endfacet
  facet normal 0.994523 0.104513 0
    outer loop
      vertex -15.25 0 -8
      vertex -14.9168 -3.17065 8
      vertex -14.9168 -3.17065 -8
    endloop
  endfacet
  facet normal -0.743145 0.669131 0
    outer loop
      vertex 10.2042 -11.333 -8
      vertex 12.3375 -8.96373 8
      vertex 12.3375 -8.96373 -8
    endloop
  endfacet
  facet normal -0.743145 0.669131 0
    outer loop
      vertex 12.3375 -8.96373 8
      vertex 10.2042 -11.333 -8
      vertex 10.2042 -11.333 8
    endloop
  endfacet
  facet normal 0 1 -0
    outer loop
      vertex 1.59406 -15.1665 -8
      vertex -1.59406 -15.1665 8
      vertex 1.59406 -15.1665 8
    endloop
  endfacet
  facet normal 0 1 0
    outer loop
      vertex -1.59406 -15.1665 8
      vertex 1.59406 -15.1665 -8
      vertex -1.59406 -15.1665 -8
    endloop
  endfacet
  facet normal -0.40673 0.913548 0
    outer loop
      vertex 7.625 -13.2069 -8
      vertex 4.71251 -14.5036 8
      vertex 7.625 -13.2069 8
    endloop
  endfacet
  facet normal -0.40673 0.913548 0
    outer loop
      vertex 4.71251 -14.5036 8
      vertex 7.625 -13.2069 -8
      vertex 4.71251 -14.5036 -8
    endloop
  endfacet
  facet normal -0.951055 0.309022 0
    outer loop
      vertex 13.9316 -6.20273 -8
      vertex 14.9168 -3.17065 8
      vertex 14.9168 -3.17065 -8
    endloop
  endfacet
  facet normal -0.951055 0.309022 0
    outer loop
      vertex 14.9168 -3.17065 8
      vertex 13.9316 -6.20273 -8
      vertex 13.9316 -6.20273 8
    endloop
  endfacet
  facet normal 0.207928 0.978144 -0
    outer loop
      vertex -1.59406 -15.1665 -8
      vertex -4.71251 -14.5036 8
      vertex -1.59406 -15.1665 8
    endloop
  endfacet
  facet normal 0.207928 0.978144 0
    outer loop
      vertex -4.71251 -14.5036 8
      vertex -1.59406 -15.1665 -8
      vertex -4.71251 -14.5036 -8
    endloop
  endfacet
  facet normal 0.866021 0.500008 0
    outer loop
      vertex -12.3375 -8.96373 8
      vertex -13.9316 -6.20273 -8
      vertex -13.9316 -6.20273 8
    endloop
  endfacet
  facet normal 0.866021 0.500008 0
    outer loop
      vertex -13.9316 -6.20273 -8
      vertex -12.3375 -8.96373 8
      vertex -12.3375 -8.96373 -8
    endloop
  endfacet
  facet normal -0.587786 0.809017 0
    outer loop
      vertex 10.2042 -11.333 -8
      vertex 7.625 -13.2069 8
      vertex 10.2042 -11.333 8
    endloop
  endfacet
  facet normal -0.587786 0.809017 0
    outer loop
      vertex 7.625 -13.2069 8
      vertex 10.2042 -11.333 -8
      vertex 7.625 -13.2069 -8
    endloop
  endfacet
  facet normal 0.587786 0.809017 -0
    outer loop
      vertex -7.625 -13.2069 -8
      vertex -10.2042 -11.333 8
      vertex -7.625 -13.2069 8
    endloop
  endfacet
  facet normal 0.587786 0.809017 0
    outer loop
      vertex -10.2042 -11.333 8
      vertex -7.625 -13.2069 -8
      vertex -10.2042 -11.333 -8
    endloop
  endfacet
endsolid OpenSCAD_Model
