solid OpenSCAD_Model
  facet normal -1 0 0
    outer loop
      vertex 15 0 -14
      vertex 15 17 14
      vertex 15 17 -14
    endloop
  endfacet
  facet normal -1 -0 0
    outer loop
      vertex 15 17 14
      vertex 15 0 -14
      vertex 15 0 14
    endloop
  endfacet
  facet normal 1 -0 0
    outer loop
      vertex -15 0 14
      vertex -15 17 -14
      vertex -15 17 14
    endloop
  endfacet
  facet normal 1 0 0
    outer loop
      vertex -15 17 -14
      vertex -15 0 14
      vertex -15 0 -14
    endloop
  endfacet
  facet normal -0.951059 0.309008 0
    outer loop
      vertex 13.7032 -6.10105 -14
      vertex 14.6722 -3.11868 14
      vertex 14.6722 -3.11868 -14
    endloop
  endfacet
  facet normal -0.951059 0.309008 0
    outer loop
      vertex 14.6722 -3.11868 14
      vertex 13.7032 -6.10105 -14
      vertex 13.7032 -6.10105 14
    endloop
  endfacet
  facet normal -0.994521 0.104533 0
    outer loop
      vertex 14.6722 -3.11868 -14
      vertex 15 0 14
      vertex 15 0 -14
    endloop
  endfacet
  facet normal -0.994521 0.104533 0
    outer loop
      vertex 15 0 14
      vertex 14.6722 -3.11868 -14
      vertex 14.6722 -3.11868 14
    endloop
  endfacet
  facet normal 0.951059 0.309008 0
    outer loop
      vertex -13.7032 -6.10105 14
      vertex -14.6722 -3.11868 -14
      vertex -14.6722 -3.11868 14
    endloop
  endfacet
  facet normal 0.951059 0.309008 0
    outer loop
      vertex -14.6722 -3.11868 -14
      vertex -13.7032 -6.10105 14
      vertex -13.7032 -6.10105 -14
    endloop
  endfacet
  facet normal -0.587777 0.809023 0
    outer loop
      vertex 10.037 -11.1472 -14
      vertex 7.5 -12.9904 14
      vertex 10.037 -11.1472 14
    endloop
  endfacet
  facet normal -0.587777 0.809023 0
    outer loop
      vertex 7.5 -12.9904 14
      vertex 10.037 -11.1472 -14
      vertex 7.5 -12.9904 -14
    endloop
  endfacet
  facet normal -0.866029 0.499993 0
    outer loop
      vertex 12.1353 -8.81678 -14
      vertex 13.7032 -6.10105 14
      vertex 13.7032 -6.10105 -14
    endloop
  endfacet
  facet normal -0.866029 0.499993 0
    outer loop
      vertex 13.7032 -6.10105 14
      vertex 12.1353 -8.81678 -14
      vertex 12.1353 -8.81678 14
    endloop
  endfacet
  facet normal 0.207918 0.978146 -0
    outer loop
      vertex -1.56793 -14.9178 -14
      vertex -4.63525 -14.2658 14
      vertex -1.56793 -14.9178 14
    endloop
  endfacet
  facet normal 0.207918 0.978146 0
    outer loop
      vertex -4.63525 -14.2658 14
      vertex -1.56793 -14.9178 -14
      vertex -4.63525 -14.2658 -14
    endloop
  endfacet
  facet normal -0.207918 0.978146 0
    outer loop
      vertex 4.63525 -14.2658 -14
      vertex 1.56793 -14.9178 14
      vertex 4.63525 -14.2658 14
    endloop
  endfacet
  facet normal -0.207918 0.978146 0
    outer loop
      vertex 1.56793 -14.9178 14
      vertex 4.63525 -14.2658 -14
      vertex 1.56793 -14.9178 -14
    endloop
  endfacet
  facet normal -0.743148 0.669127 0
    outer loop
      vertex 10.037 -11.1472 -14
      vertex 12.1353 -8.81678 14
      vertex 12.1353 -8.81678 -14
    endloop
  endfacet
  facet normal -0.743148 0.669127 0
    outer loop
      vertex 12.1353 -8.81678 14
      vertex 10.037 -11.1472 -14
      vertex 10.037 -11.1472 14
    endloop
  endfacet
  facet normal -0.406718 0.913554 0
    outer loop
      vertex 7.5 -12.9904 -14
      vertex 4.63525 -14.2658 14
      vertex 7.5 -12.9904 14
    endloop
  endfacet
  facet normal -0.406718 0.913554 0
    outer loop
      vertex 4.63525 -14.2658 14
      vertex 7.5 -12.9904 -14
      vertex 4.63525 -14.2658 -14
    endloop
  endfacet
  facet normal 0.587777 0.809023 -0
    outer loop
      vertex -7.5 -12.9904 -14
      vertex -10.037 -11.1472 14
      vertex -7.5 -12.9904 14
    endloop
  endfacet
  facet normal 0.587777 0.809023 0
    outer loop
      vertex -10.037 -11.1472 14
      vertex -7.5 -12.9904 -14
      vertex -10.037 -11.1472 -14
    endloop
  endfacet
  facet normal 0.866029 0.499993 0
    outer loop
      vertex -12.1353 -8.81678 14
      vertex -13.7032 -6.10105 -14
      vertex -13.7032 -6.10105 14
    endloop
  endfacet
  facet normal 0.866029 0.499993 0
    outer loop
      vertex -13.7032 -6.10105 -14
      vertex -12.1353 -8.81678 14
      vertex -12.1353 -8.81678 -14
    endloop
  endfacet
  facet normal 0 1 -0
    outer loop
      vertex 1.56793 -14.9178 -14
      vertex -1.56793 -14.9178 14
      vertex 1.56793 -14.9178 14
    endloop
  endfacet
  facet normal 0 1 0
    outer loop
      vertex -1.56793 -14.9178 14
      vertex 1.56793 -14.9178 -14
      vertex -1.56793 -14.9178 -14
    endloop
  endfacet
  facet normal 0.994521 0.104533 0
    outer loop
      vertex -14.6722 -3.11868 14
      vertex -15 0 -14
      vertex -15 0 14
    endloop
  endfacet
  facet normal 0.994521 0.104533 0
    outer loop
      vertex -15 0 -14
      vertex -14.6722 -3.11868 14
      vertex -14.6722 -3.11868 -14
    endloop
  endfacet
  facet normal 0.743148 0.669127 0
    outer loop
      vertex -10.037 -11.1472 14
      vertex -12.1353 -8.81678 -14
      vertex -12.1353 -8.81678 14
    endloop
  endfacet
  facet normal 0.743148 0.669127 0
    outer loop
      vertex -12.1353 -8.81678 -14
      vertex -10.037 -11.1472 14
      vertex -10.037 -11.1472 -14
    endloop
  endfacet
  facet normal 0.406718 0.913554 -0
    outer loop
      vertex -4.63525 -14.2658 -14
      vertex -7.5 -12.9904 14
      vertex -4.63525 -14.2658 14
    endloop
  endfacet
  facet normal 0.406718 0.913554 0
    outer loop
      vertex -7.5 -12.9904 14
      vertex -4.63525 -14.2658 -14
      vertex -7.5 -12.9904 -14
    endloop
  endfacet
  facet normal 1 -0 0
    outer loop
      vertex 75 -83 14
      vertex 75 17 -14
      vertex 75 17 14
    endloop
  endfacet
  facet normal 1 0 0
    outer loop
      vertex 75 17 -14
      vertex 75 -83 14
      vertex 75 -83 -14
    endloop
  endfacet
  facet normal 0 0 1
    outer loop
      vertex -15 17 14
      vertex -75 17 14
      vertex -15 0 14
    endloop
  endfacet
  facet normal 0 0 1
    outer loop
      vertex 15 0 14
      vertex 75 17 14
      vertex 15 17 14
    endloop
  endfacet
  facet normal 0 0 1
    outer loop
      vertex 14.6722 -3.11868 14
      vertex 75 17 14
      vertex 15 0 14
    endloop
  endfacet
  facet normal 0 0 1
    outer loop
      vertex 13.7032 -6.10105 14
      vertex 75 17 14
      vertex 14.6722 -3.11868 14
    endloop
  endfacet
  facet normal 0 0 1
    outer loop
      vertex 75 17 14
      vertex 13.7032 -6.10105 14
      vertex 75 -83 14
    endloop
  endfacet
  facet normal -0 0 1
    outer loop
      vertex 12.1353 -8.81678 14
      vertex 75 -83 14
      vertex 13.7032 -6.10105 14
    endloop
  endfacet
  facet normal -0 0 1
    outer loop
      vertex 10.037 -11.1472 14
      vertex 75 -83 14
      vertex 12.1353 -8.81678 14
    endloop
  endfacet
  facet normal -0 0 1
    outer loop
      vertex 7.5 -12.9904 14
      vertex 75 -83 14
      vertex 10.037 -11.1472 14
    endloop
  endfacet
  facet normal -0 0 1
    outer loop
      vertex 4.63525 -14.2658 14
      vertex 75 -83 14
      vertex 7.5 -12.9904 14
    endloop
  endfacet
  facet normal -0 0 1
    outer loop
      vertex 1.56793 -14.9178 14
      vertex 75 -83 14
      vertex 4.63525 -14.2658 14
    endloop
  endfacet
  facet normal -0 0 1
    outer loop
      vertex -1.56793 -14.9178 14
      vertex 75 -83 14
      vertex 1.56793 -14.9178 14
    endloop
  endfacet
  facet normal 0 0 1
    outer loop
      vertex -75 -83 14
      vertex -1.56793 -14.9178 14
      vertex -4.63525 -14.2658 14
    endloop
  endfacet
  facet normal 0 0 1
    outer loop
      vertex -75 -83 14
      vertex -4.63525 -14.2658 14
      vertex -7.5 -12.9904 14
    endloop
  endfacet
  facet normal 0 0 1
    outer loop
      vertex -75 -83 14
      vertex -7.5 -12.9904 14
      vertex -10.037 -11.1472 14
    endloop
  endfacet
  facet normal 0 0 1
    outer loop
      vertex -75 17 14
      vertex -14.6722 -3.11868 14
      vertex -15 0 14
    endloop
  endfacet
  facet normal 0 0 1
    outer loop
      vertex -75 17 14
      vertex -13.7032 -6.10105 14
      vertex -14.6722 -3.11868 14
    endloop
  endfacet
  facet normal 0 0 1
    outer loop
      vertex -75 -83 14
      vertex -13.7032 -6.10105 14
      vertex -75 17 14
    endloop
  endfacet
  facet normal 0 0 1
    outer loop
      vertex -13.7032 -6.10105 14
      vertex -75 -83 14
      vertex -12.1353 -8.81678 14
    endloop
  endfacet
  facet normal 0 0 1
    outer loop
      vertex -12.1353 -8.81678 14
      vertex -75 -83 14
      vertex -10.037 -11.1472 14
    endloop
  endfacet
  facet normal 0 0 1
    outer loop
      vertex -1.56793 -14.9178 14
      vertex -75 -83 14
      vertex 75 -83 14
    endloop
  endfacet
  facet normal 0 0 -1
    outer loop
      vertex 13.7032 -6.10105 -14
      vertex 75 17 -14
      vertex 75 -83 -14
    endloop
  endfacet
  facet normal 0 0 -1
    outer loop
      vertex 75 17 -14
      vertex 14.6722 -3.11868 -14
      vertex 15 0 -14
    endloop
  endfacet
  facet normal 0 0 -1
    outer loop
      vertex 75 17 -14
      vertex 13.7032 -6.10105 -14
      vertex 14.6722 -3.11868 -14
    endloop
  endfacet
  facet normal 0 0 -1
    outer loop
      vertex 75 -83 -14
      vertex 12.1353 -8.81678 -14
      vertex 13.7032 -6.10105 -14
    endloop
  endfacet
  facet normal 0 0 -1
    outer loop
      vertex 75 -83 -14
      vertex 10.037 -11.1472 -14
      vertex 12.1353 -8.81678 -14
    endloop
  endfacet
  facet normal 0 0 -1
    outer loop
      vertex 75 -83 -14
      vertex 7.5 -12.9904 -14
      vertex 10.037 -11.1472 -14
    endloop
  endfacet
  facet normal 0 0 -1
    outer loop
      vertex 75 -83 -14
      vertex 4.63525 -14.2658 -14
      vertex 7.5 -12.9904 -14
    endloop
  endfacet
  facet normal 0 0 -1
    outer loop
      vertex 75 -83 -14
      vertex 1.56793 -14.9178 -14
      vertex 4.63525 -14.2658 -14
    endloop
  endfacet
  facet normal 0 0 -1
    outer loop
      vertex 75 -83 -14
      vertex -1.56793 -14.9178 -14
      vertex 1.56793 -14.9178 -14
    endloop
  endfacet
  facet normal 0 0 -1
    outer loop
      vertex -75 -83 -14
      vertex -1.56793 -14.9178 -14
      vertex 75 -83 -14
    endloop
  endfacet
  facet normal -0 0 -1
    outer loop
      vertex -1.56793 -14.9178 -14
      vertex -75 -83 -14
      vertex -4.63525 -14.2658 -14
    endloop
  endfacet
  facet normal -0 0 -1
    outer loop
      vertex -4.63525 -14.2658 -14
      vertex -75 -83 -14
      vertex -7.5 -12.9904 -14
    endloop
  endfacet
  facet normal -0 0 -1
    outer loop
      vertex -7.5 -12.9904 -14
      vertex -75 -83 -14
      vertex -10.037 -11.1472 -14
    endloop
  endfacet
  facet normal 0 0 -1
    outer loop
      vertex -75 -83 -14
      vertex -12.1353 -8.81678 -14
      vertex -10.037 -11.1472 -14
    endloop
  endfacet
  facet normal 0 0 -1
    outer loop
      vertex -75 -83 -14
      vertex -13.7032 -6.10105 -14
      vertex -12.1353 -8.81678 -14
    endloop
  endfacet
  facet normal 0 0 -1
    outer loop
      vertex -75 17 -14
      vertex -13.7032 -6.10105 -14
      vertex -75 -83 -14
    endloop
  endfacet
  facet normal 0 0 -1
    outer loop
      vertex -13.7032 -6.10105 -14
      vertex -75 17 -14
      vertex -14.6722 -3.11868 -14
    endloop
  endfacet
  facet normal 0 0 -1
    outer loop
      vertex -14.6722 -3.11868 -14
      vertex -75 17 -14
      vertex -15 0 -14
    endloop
  endfacet
  facet normal 0 0 -1
    outer loop
      vertex -15 0 -14
      vertex -75 17 -14
      vertex -15 17 -14
    endloop
  endfacet
  facet normal -0 0 -1
    outer loop
      vertex 75 17 -14
      vertex 15 0 -14
      vertex 15 17 -14
    endloop
  endfacet
  facet normal -1 0 0
    outer loop
      vertex -75 -83 -14
      vertex -75 17 14
      vertex -75 17 -14
    endloop
  endfacet
  facet normal -1 -0 0
    outer loop
      vertex -75 17 14
      vertex -75 -83 -14
      vertex -75 -83 14
    endloop
  endfacet
  facet normal 0 1 -0
    outer loop
      vertex -15 17 -14
      vertex -75 17 14
      vertex -15 17 14
    endloop
  endfacet
  facet normal 0 1 0
    outer loop
      vertex -75 17 14
      vertex -15 17 -14
      vertex -75 17 -14
    endloop
  endfacet
  facet normal 0 1 -0
    outer loop
      vertex 75 17 -14
      vertex 15 17 14
      vertex 75 17 14
    endloop
  endfacet
  facet normal 0 1 0
    outer loop
      vertex 15 17 14
      vertex 75 17 -14
      vertex 15 17 -14
    endloop
  endfacet
  facet normal 0 -1 0
    outer loop
      vertex -75 -83 -14
      vertex 75 -83 14
      vertex -75 -83 14
    endloop
  endfacet
  facet normal 0 -1 -0
    outer loop
      vertex 75 -83 14
      vertex -75 -83 -14
      vertex 75 -83 -14
    endloop
  endfacet
endsolid OpenSCAD_Model
