solid OpenSCAD_Model
  facet normal 1 -0 0
    outer loop
      vertex 50 -72 8
      vertex 50 8 -8
      vertex 50 8 8
    endloop
  endfacet
  facet normal 1 0 0
    outer loop
      vertex 50 8 -8
      vertex 50 -72 8
      vertex 50 -72 -8
    endloop
  endfacet
  facet normal 0 0 1
    outer loop
      vertex -15.25 8 8
      vertex -50 8 8
      vertex -15.25 0 8
    endloop
  endfacet
  facet normal 0 0 1
    outer loop
      vertex 15.25 0 8
      vertex 50 8 8
      vertex 15.25 8 8
    endloop
  endfacet
  facet normal 0 0 1
    outer loop
      vertex 50 8 8
      vertex 15.25 0 8
      vertex 50 -72 8
    endloop
  endfacet
  facet normal -0 0 1
    outer loop
      vertex -15.25 0 8
      vertex 50 -72 8
      vertex 15.25 0 8
    endloop
  endfacet
  facet normal 0 0 1
    outer loop
      vertex -50 -72 8
      vertex -15.25 0 8
      vertex -50 8 8
    endloop
  endfacet
  facet normal 0 0 1
    outer loop
      vertex -15.25 0 8
      vertex -50 -72 8
      vertex 50 -72 8
    endloop
  endfacet
  facet normal 0 0 -1
    outer loop
      vertex 50 -72 -8
      vertex 15.25 0 -8
      vertex 50 8 -8
    endloop
  endfacet
  facet normal 0 0 -1
    outer loop
      vertex 50 -72 -8
      vertex -15.25 0 -8
      vertex 15.25 0 -8
    endloop
  endfacet
  facet normal 0 0 -1
    outer loop
      vertex -50 -72 -8
      vertex -15.25 0 -8
      vertex 50 -72 -8
    endloop
  endfacet
  facet normal 0 0 -1
    outer loop
      vertex -50 8 -8
      vertex -15.25 0 -8
      vertex -50 -72 -8
    endloop
  endfacet
  facet normal 0 0 -1
    outer loop
      vertex -15.25 0 -8
      vertex -50 8 -8
      vertex -15.25 18 -8
    endloop
  endfacet
  facet normal 0 0 -1
    outer loop
      vertex -80 18 -8
      vertex -50 8 -8
      vertex -80 8 -8
    endloop
  endfacet
  facet normal 0 0 -1
    outer loop
      vertex -50 8 -8
      vertex -80 18 -8
      vertex -15.25 18 -8
    endloop
  endfacet
  facet normal 0 0 -1
    outer loop
      vertex 50 8 -8
      vertex 80 18 -8
      vertex 80 8 -8
    endloop
  endfacet
  facet normal 0 0 -1
    outer loop
      vertex 15.25 18 -8
      vertex 50 8 -8
      vertex 15.25 0 -8
    endloop
  endfacet
  facet normal 0 0 -1
    outer loop
      vertex 50 8 -8
      vertex 15.25 18 -8
      vertex 80 18 -8
    endloop
  endfacet
  facet normal -1 0 0
    outer loop
      vertex -50 -72 -8
      vertex -50 8 8
      vertex -50 8 -8
    endloop
  endfacet
  facet normal -1 -0 0
    outer loop
      vertex -50 8 8
      vertex -50 -72 -8
      vertex -50 -72 8
    endloop
  endfacet
  facet normal 0 -1 0
    outer loop
      vertex -80 8 23
      vertex -50 8 8
      vertex -15.25 8 23
    endloop
  endfacet
  facet normal 0 -1 0
    outer loop
      vertex -80 8 -8
      vertex -50 8 8
      vertex -80 8 23
    endloop
  endfacet
  facet normal 0 -1 -0
    outer loop
      vertex -50 8 8
      vertex -80 8 -8
      vertex -50 8 -8
    endloop
  endfacet
  facet normal 0 -1 -0
    outer loop
      vertex -15.25 8 23
      vertex -50 8 8
      vertex -15.25 8 8
    endloop
  endfacet
  facet normal 0 -1 0
    outer loop
      vertex 50 8 8
      vertex 15.25 8 23
      vertex 15.25 8 8
    endloop
  endfacet
  facet normal 0 -1 0
    outer loop
      vertex 15.25 8 23
      vertex 50 8 8
      vertex 80 8 23
    endloop
  endfacet
  facet normal 0 -1 0
    outer loop
      vertex 80 8 -8
      vertex 50 8 8
      vertex 50 8 -8
    endloop
  endfacet
  facet normal 0 -1 0
    outer loop
      vertex 50 8 8
      vertex 80 8 -8
      vertex 80 8 23
    endloop
  endfacet
  facet normal 0 -1 0
    outer loop
      vertex -50 -72 -8
      vertex 50 -72 8
      vertex -50 -72 8
    endloop
  endfacet
  facet normal 0 -1 -0
    outer loop
      vertex 50 -72 8
      vertex -50 -72 -8
      vertex 50 -72 -8
    endloop
  endfacet
  facet normal 1 -0 0
    outer loop
      vertex 80 8 23
      vertex 80 18 -8
      vertex 80 18 23
    endloop
  endfacet
  facet normal 1 0 0
    outer loop
      vertex 80 18 -8
      vertex 80 8 23
      vertex 80 8 -8
    endloop
  endfacet
  facet normal -0 0 1
    outer loop
      vertex -80 18 23
      vertex -15.25 8 23
      vertex -15.25 18 23
    endloop
  endfacet
  facet normal 0 0 1
    outer loop
      vertex -15.25 8 23
      vertex -80 18 23
      vertex -80 8 23
    endloop
  endfacet
  facet normal -0 0 1
    outer loop
      vertex 15.25 18 23
      vertex 80 8 23
      vertex 80 18 23
    endloop
  endfacet
  facet normal 0 0 1
    outer loop
      vertex 80 8 23
      vertex 15.25 18 23
      vertex 15.25 8 23
    endloop
  endfacet
  facet normal -1 0 0
    outer loop
      vertex -80 8 -8
      vertex -80 18 23
      vertex -80 18 -8
    endloop
  endfacet
  facet normal -1 -0 0
    outer loop
      vertex -80 18 23
      vertex -80 8 -8
      vertex -80 8 23
    endloop
  endfacet
  facet normal 0 1 -0
    outer loop
      vertex -15.25 18 -8
      vertex -80 18 23
      vertex -15.25 18 23
    endloop
  endfacet
  facet normal 0 1 0
    outer loop
      vertex -80 18 23
      vertex -15.25 18 -8
      vertex -80 18 -8
    endloop
  endfacet
  facet normal 0 1 -0
    outer loop
      vertex 80 18 -8
      vertex 15.25 18 23
      vertex 80 18 23
    endloop
  endfacet
  facet normal 0 1 0
    outer loop
      vertex 15.25 18 23
      vertex 80 18 -8
      vertex 15.25 18 -8
    endloop
  endfacet
  facet normal -1 0 0
    outer loop
      vertex 15.25 18 -8
      vertex 15.25 8 8
      vertex 15.25 18 23
    endloop
  endfacet
  facet normal -1 0 0
    outer loop
      vertex 15.25 0 -8
      vertex 15.25 8 8
      vertex 15.25 18 -8
    endloop
  endfacet
  facet normal -1 -0 0
    outer loop
      vertex 15.25 8 8
      vertex 15.25 0 -8
      vertex 15.25 0 8
    endloop
  endfacet
  facet normal -1 -0 0
    outer loop
      vertex 15.25 18 23
      vertex 15.25 8 8
      vertex 15.25 8 23
    endloop
  endfacet
  facet normal 1 0 0
    outer loop
      vertex -15.25 8 8
      vertex -15.25 18 23
      vertex -15.25 8 23
    endloop
  endfacet
  facet normal 1 0 0
    outer loop
      vertex -15.25 18 23
      vertex -15.25 8 8
      vertex -15.25 18 -8
    endloop
  endfacet
  facet normal 1 0 0
    outer loop
      vertex -15.25 0 -8
      vertex -15.25 8 8
      vertex -15.25 0 8
    endloop
  endfacet
  facet normal 1 0 0
    outer loop
      vertex -15.25 8 8
      vertex -15.25 0 -8
      vertex -15.25 18 -8
    endloop
  endfacet
  facet normal 0 1 -0
    outer loop
      vertex 15.25 0 -8
      vertex -15.25 0 8
      vertex 15.25 0 8
    endloop
  endfacet
  facet normal 0 1 0
    outer loop
      vertex -15.25 0 8
      vertex 15.25 0 -8
      vertex -15.25 0 -8
    endloop
  endfacet
endsolid OpenSCAD_Model
