solid OpenSCAD_Model
  facet normal 1 -0 0
    outer loop
      vertex 75 -86 5
      vertex 75 14 -5
      vertex 75 14 5
    endloop
  endfacet
  facet normal 1 0 0
    outer loop
      vertex 75 14 -5
      vertex 75 -86 5
      vertex 75 -86 -5
    endloop
  endfacet
  facet normal 0 0 1
    outer loop
      vertex -15 14 5
      vertex -75 14 5
      vertex -15 0 5
    endloop
  endfacet
  facet normal 0 0 1
    outer loop
      vertex 15 0 5
      vertex 75 14 5
      vertex 15 14 5
    endloop
  endfacet
  facet normal 0 0 1
    outer loop
      vertex 75 14 5
      vertex 15 0 5
      vertex 75 -86 5
    endloop
  endfacet
  facet normal -0 0 1
    outer loop
      vertex -15 0 5
      vertex 75 -86 5
      vertex 15 0 5
    endloop
  endfacet
  facet normal 0 0 1
    outer loop
      vertex -75 -86 5
      vertex -15 0 5
      vertex -75 14 5
    endloop
  endfacet
  facet normal 0 0 1
    outer loop
      vertex -15 0 5
      vertex -75 -86 5
      vertex 75 -86 5
    endloop
  endfacet
  facet normal 0 0 -1
    outer loop
      vertex 75 -86 -5
      vertex 15 0 -5
      vertex 75 14 -5
    endloop
  endfacet
  facet normal 0 0 -1
    outer loop
      vertex 75 -86 -5
      vertex -15 0 -5
      vertex 15 0 -5
    endloop
  endfacet
  facet normal 0 0 -1
    outer loop
      vertex -75 -86 -5
      vertex -15 0 -5
      vertex 75 -86 -5
    endloop
  endfacet
  facet normal 0 0 -1
    outer loop
      vertex -75 14 -5
      vertex -15 0 -5
      vertex -75 -86 -5
    endloop
  endfacet
  facet normal 0 0 -1
    outer loop
      vertex -15 0 -5
      vertex -75 14 -5
      vertex -15 14 -5
    endloop
  endfacet
  facet normal -0 0 -1
    outer loop
      vertex 75 14 -5
      vertex 15 0 -5
      vertex 15 14 -5
    endloop
  endfacet
  facet normal -1 0 0
    outer loop
      vertex -75 -86 -5
      vertex -75 14 5
      vertex -75 14 -5
    endloop
  endfacet
  facet normal -1 -0 0
    outer loop
      vertex -75 14 5
      vertex -75 -86 -5
      vertex -75 -86 5
    endloop
  endfacet
  facet normal 0 1 -0
    outer loop
      vertex -15 14 -5
      vertex -75 14 5
      vertex -15 14 5
    endloop
  endfacet
  facet normal 0 1 0
    outer loop
      vertex -75 14 5
      vertex -15 14 -5
      vertex -75 14 -5
    endloop
  endfacet
  facet normal 0 1 -0
    outer loop
      vertex 75 14 -5
      vertex 15 14 5
      vertex 75 14 5
    endloop
  endfacet
  facet normal 0 1 0
    outer loop
      vertex 15 14 5
      vertex 75 14 -5
      vertex 15 14 -5
    endloop
  endfacet
  facet normal 0 -1 0
    outer loop
      vertex -75 -86 -5
      vertex 75 -86 5
      vertex -75 -86 5
    endloop
  endfacet
  facet normal 0 -1 -0
    outer loop
      vertex 75 -86 5
      vertex -75 -86 -5
      vertex 75 -86 -5
    endloop
  endfacet
  facet normal -1 0 0
    outer loop
      vertex 15 0 -5
      vertex 15 14 5
      vertex 15 14 -5
    endloop
  endfacet
  facet normal -1 -0 0
    outer loop
      vertex 15 14 5
      vertex 15 0 -5
      vertex 15 0 5
    endloop
  endfacet
  facet normal 1 -0 0
    outer loop
      vertex -15 0 5
      vertex -15 14 -5
      vertex -15 14 5
    endloop
  endfacet
  facet normal 1 0 0
    outer loop
      vertex -15 14 -5
      vertex -15 0 5
      vertex -15 0 -5
    endloop
  endfacet
  facet normal 0 1 -0
    outer loop
      vertex 15 0 -5
      vertex -15 0 5
      vertex 15 0 5
    endloop
  endfacet
  facet normal 0 1 0
    outer loop
      vertex -15 0 5
      vertex 15 0 -5
      vertex -15 0 -5
    endloop
  endfacet
endsolid OpenSCAD_Model
