solid OpenSCAD_Model
  facet normal 1 0 0
    outer loop
      vertex 45.5 -15 35
      vertex 45.5 -25 35
      vertex 45.5 -15 18
    endloop
  endfacet
  facet normal 1 -0 0
    outer loop
      vertex 45.5 -15 18
      vertex 45.5 65 0
      vertex 45.5 65 18
    endloop
  endfacet
  facet normal 1 0 0
    outer loop
      vertex 45.5 -15 18
      vertex 45.5 -25 0
      vertex 45.5 65 0
    endloop
  endfacet
  facet normal 1 0 0
    outer loop
      vertex 45.5 -25 0
      vertex 45.5 -15 18
      vertex 45.5 -25 35
    endloop
  endfacet
  facet normal 0 0 1
    outer loop
      vertex -2 -6.92875 18
      vertex -2.9962 -6.92875 18
      vertex -2 -7 18
    endloop
  endfacet
  facet normal -0 0 1
    outer loop
      vertex 7.88877 3.78448 18
      vertex 45.5 -15 18
      vertex 45.5 65 18
    endloop
  endfacet
  facet normal 0 0 1
    outer loop
      vertex 45.5 -15 18
      vertex 8.71645 1.97213 18
      vertex 9 0 18
    endloop
  endfacet
  facet normal 0 0 1
    outer loop
      vertex 45.5 -15 18
      vertex 7.88877 3.78448 18
      vertex 8.71645 1.97213 18
    endloop
  endfacet
  facet normal 0 0 1
    outer loop
      vertex 45.5 65 18
      vertex 6.58402 5.29025 18
      vertex 7.88877 3.78448 18
    endloop
  endfacet
  facet normal 0 0 1
    outer loop
      vertex 45.5 65 18
      vertex 4.9079 6.36742 18
      vertex 6.58402 5.29025 18
    endloop
  endfacet
  facet normal 0 0 1
    outer loop
      vertex 45.5 65 18
      vertex 2.9962 6.92875 18
      vertex 4.9079 6.36742 18
    endloop
  endfacet
  facet normal 0 0 1
    outer loop
      vertex 45.5 65 18
      vertex 2 7 18
      vertex 2.9962 6.92875 18
    endloop
  endfacet
  facet normal 0 0 1
    outer loop
      vertex 45.5 65 18
      vertex -2 7 18
      vertex 2 7 18
    endloop
  endfacet
  facet normal 0 0 1
    outer loop
      vertex -2 7 18
      vertex -2.9962 6.92875 18
      vertex -2 6.92875 18
    endloop
  endfacet
  facet normal -0 0 1
    outer loop
      vertex -45.5 65 18
      vertex -2 7 18
      vertex 45.5 65 18
    endloop
  endfacet
  facet normal 0 0 1
    outer loop
      vertex -2 7 18
      vertex -45.5 65 18
      vertex -2.9962 6.92875 18
    endloop
  endfacet
  facet normal 0 0 1
    outer loop
      vertex -2.9962 6.92875 18
      vertex -45.5 65 18
      vertex -4.9079 6.36742 18
    endloop
  endfacet
  facet normal 0 0 1
    outer loop
      vertex -7.88877 3.78448 18
      vertex -45.5 -15 18
      vertex -8.71645 1.97213 18
    endloop
  endfacet
  facet normal 0 0 1
    outer loop
      vertex -45.5 -15 18
      vertex -7.88877 3.78448 18
      vertex -45.5 65 18
    endloop
  endfacet
  facet normal 0 0 1
    outer loop
      vertex -6.58402 5.29025 18
      vertex -45.5 65 18
      vertex -7.88877 3.78448 18
    endloop
  endfacet
  facet normal 0 0 1
    outer loop
      vertex -4.9079 6.36742 18
      vertex -45.5 65 18
      vertex -6.58402 5.29025 18
    endloop
  endfacet
  facet normal -0 0 1
    outer loop
      vertex 8.71645 -1.97213 18
      vertex 45.5 -15 18
      vertex 9 0 18
    endloop
  endfacet
  facet normal -0 0 1
    outer loop
      vertex 7.88877 -3.78448 18
      vertex 45.5 -15 18
      vertex 8.71645 -1.97213 18
    endloop
  endfacet
  facet normal -0 0 1
    outer loop
      vertex 6.58402 -5.29025 18
      vertex 45.5 -15 18
      vertex 7.88877 -3.78448 18
    endloop
  endfacet
  facet normal -0 0 1
    outer loop
      vertex 4.9079 -6.36742 18
      vertex 45.5 -15 18
      vertex 6.58402 -5.29025 18
    endloop
  endfacet
  facet normal -0 0 1
    outer loop
      vertex 2.9962 -6.92875 18
      vertex 45.5 -15 18
      vertex 4.9079 -6.36742 18
    endloop
  endfacet
  facet normal 0 0 1
    outer loop
      vertex 2 -7 18
      vertex 2.9962 -6.92875 18
      vertex 2 -6.92875 18
    endloop
  endfacet
  facet normal 0 0 1
    outer loop
      vertex 2.9962 -6.92875 18
      vertex 2 -7 18
      vertex 45.5 -15 18
    endloop
  endfacet
  facet normal -0 0 1
    outer loop
      vertex -2 -7 18
      vertex 45.5 -15 18
      vertex 2 -7 18
    endloop
  endfacet
  facet normal 0 0 1
    outer loop
      vertex -45.5 -15 18
      vertex -2 -7 18
      vertex -2.9962 -6.92875 18
    endloop
  endfacet
  facet normal 0 0 1
    outer loop
      vertex -8.71645 1.97213 18
      vertex -45.5 -15 18
      vertex -9 0 18
    endloop
  endfacet
  facet normal 0 0 1
    outer loop
      vertex -9 0 18
      vertex -45.5 -15 18
      vertex -8.71645 -1.97213 18
    endloop
  endfacet
  facet normal 0 0 1
    outer loop
      vertex -2 -7 18
      vertex -45.5 -15 18
      vertex 45.5 -15 18
    endloop
  endfacet
  facet normal 0 0 1
    outer loop
      vertex -4.9079 -6.36742 18
      vertex -45.5 -15 18
      vertex -2.9962 -6.92875 18
    endloop
  endfacet
  facet normal 0 0 1
    outer loop
      vertex -6.58402 -5.29025 18
      vertex -45.5 -15 18
      vertex -4.9079 -6.36742 18
    endloop
  endfacet
  facet normal 0 0 1
    outer loop
      vertex -7.88877 -3.78448 18
      vertex -45.5 -15 18
      vertex -6.58402 -5.29025 18
    endloop
  endfacet
  facet normal 0 0 1
    outer loop
      vertex -8.71645 -1.97213 18
      vertex -45.5 -15 18
      vertex -7.88877 -3.78448 18
    endloop
  endfacet
  facet normal 0 0 1
    outer loop
      vertex 2.9962 6.92875 18
      vertex 2 7 18
      vertex 2 6.92875 18
    endloop
  endfacet
  facet normal 0 0 -1
    outer loop
      vertex -2 6.92875 0
      vertex -2.9962 6.92875 0
      vertex -2 7 0
    endloop
  endfacet
  facet normal 0 0 -1
    outer loop
      vertex 8.71645 1.97213 0
      vertex 45.5 -25 0
      vertex 9 0 0
    endloop
  endfacet
  facet normal 0 0 -1
    outer loop
      vertex 45.5 -25 0
      vertex 8.71645 -1.97213 0
      vertex 9 0 0
    endloop
  endfacet
  facet normal 0 0 -1
    outer loop
      vertex 45.5 -25 0
      vertex 7.88877 -3.78448 0
      vertex 8.71645 -1.97213 0
    endloop
  endfacet
  facet normal 0 0 -1
    outer loop
      vertex 45.5 -25 0
      vertex 6.58402 -5.29025 0
      vertex 7.88877 -3.78448 0
    endloop
  endfacet
  facet normal 0 0 -1
    outer loop
      vertex 45.5 -25 0
      vertex 4.9079 -6.36742 0
      vertex 6.58402 -5.29025 0
    endloop
  endfacet
  facet normal 0 0 -1
    outer loop
      vertex 45.5 -25 0
      vertex 2.9962 -6.92875 0
      vertex 4.9079 -6.36742 0
    endloop
  endfacet
  facet normal 0 0 -1
    outer loop
      vertex 45.5 -25 0
      vertex 2 -7 0
      vertex 2.9962 -6.92875 0
    endloop
  endfacet
  facet normal 0 0 -1
    outer loop
      vertex 45.5 -25 0
      vertex -2 -7 0
      vertex 2 -7 0
    endloop
  endfacet
  facet normal 0 0 -1
    outer loop
      vertex -2 -7 0
      vertex -2.9962 -6.92875 0
      vertex -2 -6.92875 0
    endloop
  endfacet
  facet normal 0 0 -1
    outer loop
      vertex -45.5 -25 0
      vertex -2 -7 0
      vertex 45.5 -25 0
    endloop
  endfacet
  facet normal -0 0 -1
    outer loop
      vertex -2 -7 0
      vertex -45.5 -25 0
      vertex -2.9962 -6.92875 0
    endloop
  endfacet
  facet normal -0 0 -1
    outer loop
      vertex -8.71645 -1.97213 0
      vertex -45.5 -25 0
      vertex -9 0 0
    endloop
  endfacet
  facet normal -0 0 -1
    outer loop
      vertex -7.88877 -3.78448 0
      vertex -45.5 -25 0
      vertex -8.71645 -1.97213 0
    endloop
  endfacet
  facet normal -0 0 -1
    outer loop
      vertex -6.58402 -5.29025 0
      vertex -45.5 -25 0
      vertex -7.88877 -3.78448 0
    endloop
  endfacet
  facet normal -0 0 -1
    outer loop
      vertex -4.9079 -6.36742 0
      vertex -45.5 -25 0
      vertex -6.58402 -5.29025 0
    endloop
  endfacet
  facet normal -0 0 -1
    outer loop
      vertex -2.9962 -6.92875 0
      vertex -45.5 -25 0
      vertex -4.9079 -6.36742 0
    endloop
  endfacet
  facet normal 0 0 -1
    outer loop
      vertex 45.5 -25 0
      vertex 8.71645 1.97213 0
      vertex 45.5 65 0
    endloop
  endfacet
  facet normal 0 0 -1
    outer loop
      vertex 7.88877 3.78448 0
      vertex 45.5 65 0
      vertex 8.71645 1.97213 0
    endloop
  endfacet
  facet normal 0 0 -1
    outer loop
      vertex 6.58402 5.29025 0
      vertex 45.5 65 0
      vertex 7.88877 3.78448 0
    endloop
  endfacet
  facet normal 0 0 -1
    outer loop
      vertex 4.9079 6.36742 0
      vertex 45.5 65 0
      vertex 6.58402 5.29025 0
    endloop
  endfacet
  facet normal 0 0 -1
    outer loop
      vertex 2.9962 6.92875 0
      vertex 45.5 65 0
      vertex 4.9079 6.36742 0
    endloop
  endfacet
  facet normal 0 0 -1
    outer loop
      vertex 2 7 0
      vertex 2.9962 6.92875 0
      vertex 2 6.92875 0
    endloop
  endfacet
  facet normal 0 0 -1
    outer loop
      vertex 2.9962 6.92875 0
      vertex 2 7 0
      vertex 45.5 65 0
    endloop
  endfacet
  facet normal 0 0 -1
    outer loop
      vertex -2 7 0
      vertex 45.5 65 0
      vertex 2 7 0
    endloop
  endfacet
  facet normal 0 0 -1
    outer loop
      vertex -45.5 65 0
      vertex -2 7 0
      vertex -2.9962 6.92875 0
    endloop
  endfacet
  facet normal 0 0 -1
    outer loop
      vertex -45.5 65 0
      vertex -2.9962 6.92875 0
      vertex -4.9079 6.36742 0
    endloop
  endfacet
  facet normal 0 0 -1
    outer loop
      vertex -45.5 65 0
      vertex -4.9079 6.36742 0
      vertex -6.58402 5.29025 0
    endloop
  endfacet
  facet normal 0 0 -1
    outer loop
      vertex -45.5 -25 0
      vertex -8.71645 1.97213 0
      vertex -9 0 0
    endloop
  endfacet
  facet normal 0 0 -1
    outer loop
      vertex -45.5 65 0
      vertex -8.71645 1.97213 0
      vertex -45.5 -25 0
    endloop
  endfacet
  facet normal 0 0 -1
    outer loop
      vertex -8.71645 1.97213 0
      vertex -45.5 65 0
      vertex -7.88877 3.78448 0
    endloop
  endfacet
  facet normal 0 0 -1
    outer loop
      vertex -7.88877 3.78448 0
      vertex -45.5 65 0
      vertex -6.58402 5.29025 0
    endloop
  endfacet
  facet normal 0 0 -1
    outer loop
      vertex -2 7 0
      vertex -45.5 65 0
      vertex 45.5 65 0
    endloop
  endfacet
  facet normal -0 0 -1
    outer loop
      vertex 2.9962 -6.92875 0
      vertex 2 -7 0
      vertex 2 -6.92875 0
    endloop
  endfacet
  facet normal -1 0 0
    outer loop
      vertex -45.5 65 0
      vertex -45.5 -15 18
      vertex -45.5 65 18
    endloop
  endfacet
  facet normal -1 0 0
    outer loop
      vertex -45.5 -25 0
      vertex -45.5 -15 18
      vertex -45.5 65 0
    endloop
  endfacet
  facet normal -1 0 0
    outer loop
      vertex -45.5 -25 35
      vertex -45.5 -15 18
      vertex -45.5 -25 0
    endloop
  endfacet
  facet normal -1 0 0
    outer loop
      vertex -45.5 -15 18
      vertex -45.5 -25 35
      vertex -45.5 -15 35
    endloop
  endfacet
  facet normal 0 1 -0
    outer loop
      vertex 45.5 65 0
      vertex -45.5 65 18
      vertex 45.5 65 18
    endloop
  endfacet
  facet normal 0 1 0
    outer loop
      vertex -45.5 65 18
      vertex 45.5 65 0
      vertex -45.5 65 0
    endloop
  endfacet
  facet normal 0 1 -0
    outer loop
      vertex 45.5 -15 18
      vertex -45.5 -15 35
      vertex 45.5 -15 35
    endloop
  endfacet
  facet normal 0 1 0
    outer loop
      vertex -45.5 -15 35
      vertex 45.5 -15 18
      vertex -45.5 -15 18
    endloop
  endfacet
  facet normal -0 0 1
    outer loop
      vertex -45.5 -15 35
      vertex 45.5 -25 35
      vertex 45.5 -15 35
    endloop
  endfacet
  facet normal 0 0 1
    outer loop
      vertex 45.5 -25 35
      vertex -45.5 -15 35
      vertex -45.5 -25 35
    endloop
  endfacet
  facet normal 0 -1 0
    outer loop
      vertex -45.5 -25 0
      vertex 45.5 -25 35
      vertex -45.5 -25 35
    endloop
  endfacet
  facet normal 0 -1 -0
    outer loop
      vertex 45.5 -25 35
      vertex -45.5 -25 0
      vertex 45.5 -25 0
    endloop
  endfacet
  facet normal -1 0 0
    outer loop
      vertex 2 6.92875 0
      vertex 2 7 18
      vertex 2 7 0
    endloop
  endfacet
  facet normal -1 -0 0
    outer loop
      vertex 2 7 18
      vertex 2 6.92875 0
      vertex 2 6.92875 18
    endloop
  endfacet
  facet normal -1 0 0
    outer loop
      vertex 2 -7 0
      vertex 2 -6.92875 18
      vertex 2 -6.92875 0
    endloop
  endfacet
  facet normal -1 -0 0
    outer loop
      vertex 2 -6.92875 18
      vertex 2 -7 0
      vertex 2 -7 18
    endloop
  endfacet
  facet normal 1 -0 0
    outer loop
      vertex -2 6.92875 18
      vertex -2 7 0
      vertex -2 7 18
    endloop
  endfacet
  facet normal 1 0 0
    outer loop
      vertex -2 7 0
      vertex -2 6.92875 18
      vertex -2 6.92875 0
    endloop
  endfacet
  facet normal 1 -0 0
    outer loop
      vertex -2 -7 18
      vertex -2 -6.92875 0
      vertex -2 -6.92875 18
    endloop
  endfacet
  facet normal 1 0 0
    outer loop
      vertex -2 -6.92875 0
      vertex -2 -7 18
      vertex -2 -7 0
    endloop
  endfacet
  facet normal 0 -1 0
    outer loop
      vertex -2 7 0
      vertex 2 7 18
      vertex -2 7 18
    endloop
  endfacet
  facet normal 0 -1 -0
    outer loop
      vertex 2 7 18
      vertex -2 7 0
      vertex 2 7 0
    endloop
  endfacet
  facet normal 0 1 -0
    outer loop
      vertex 2 -7 0
      vertex -2 -7 18
      vertex 2 -7 18
    endloop
  endfacet
  facet normal 0 1 0
    outer loop
      vertex -2 -7 18
      vertex 2 -7 0
      vertex -2 -7 0
    endloop
  endfacet
  facet normal 0.755751 0.654859 0
    outer loop
      vertex -6.58402 -5.29025 18
      vertex -7.88877 -3.78448 0
      vertex -7.88877 -3.78448 18
    endloop
  endfacet
  facet normal 0.755751 0.654859 0
    outer loop
      vertex -7.88877 -3.78448 0
      vertex -6.58402 -5.29025 18
      vertex -6.58402 -5.29025 0
    endloop
  endfacet
  facet normal 0.989821 0.142315 0
    outer loop
      vertex -8.71645 -1.97213 18
      vertex -9 0 0
      vertex -9 0 18
    endloop
  endfacet
  facet normal 0.989821 0.142315 0
    outer loop
      vertex -9 0 0
      vertex -8.71645 -1.97213 18
      vertex -8.71645 -1.97213 0
    endloop
  endfacet
  facet normal 0.281735 -0.959492 0
    outer loop
      vertex -4.9079 6.36742 0
      vertex -2.9962 6.92875 18
      vertex -4.9079 6.36742 18
    endloop
  endfacet
  facet normal 0.281735 -0.959492 0
    outer loop
      vertex -2.9962 6.92875 18
      vertex -4.9079 6.36742 0
      vertex -2.9962 6.92875 0
    endloop
  endfacet
  facet normal 0.909631 0.415418 0
    outer loop
      vertex -7.88877 -3.78448 18
      vertex -8.71645 -1.97213 0
      vertex -8.71645 -1.97213 18
    endloop
  endfacet
  facet normal 0.909631 0.415418 0
    outer loop
      vertex -8.71645 -1.97213 0
      vertex -7.88877 -3.78448 18
      vertex -7.88877 -3.78448 0
    endloop
  endfacet
  facet normal 0.989821 -0.142315 0
    outer loop
      vertex -9 0 18
      vertex -8.71645 1.97213 0
      vertex -8.71645 1.97213 18
    endloop
  endfacet
  facet normal 0.989821 -0.142315 0
    outer loop
      vertex -8.71645 1.97213 0
      vertex -9 0 18
      vertex -9 0 0
    endloop
  endfacet
  facet normal 0.540638 0.841255 -0
    outer loop
      vertex -4.9079 -6.36742 0
      vertex -6.58402 -5.29025 18
      vertex -4.9079 -6.36742 18
    endloop
  endfacet
  facet normal 0.540638 0.841255 0
    outer loop
      vertex -6.58402 -5.29025 18
      vertex -4.9079 -6.36742 0
      vertex -6.58402 -5.29025 0
    endloop
  endfacet
  facet normal 0 -1 0
    outer loop
      vertex -2.9962 6.92875 0
      vertex -2 6.92875 18
      vertex -2.9962 6.92875 18
    endloop
  endfacet
  facet normal 0 -1 -0
    outer loop
      vertex -2 6.92875 18
      vertex -2.9962 6.92875 0
      vertex -2 6.92875 0
    endloop
  endfacet
  facet normal 0.909631 -0.415418 0
    outer loop
      vertex -8.71645 1.97213 18
      vertex -7.88877 3.78448 0
      vertex -7.88877 3.78448 18
    endloop
  endfacet
  facet normal 0.909631 -0.415418 0
    outer loop
      vertex -7.88877 3.78448 0
      vertex -8.71645 1.97213 18
      vertex -8.71645 1.97213 0
    endloop
  endfacet
  facet normal 0.540638 -0.841255 0
    outer loop
      vertex -6.58402 5.29025 0
      vertex -4.9079 6.36742 18
      vertex -6.58402 5.29025 18
    endloop
  endfacet
  facet normal 0.540638 -0.841255 0
    outer loop
      vertex -4.9079 6.36742 18
      vertex -6.58402 5.29025 0
      vertex -4.9079 6.36742 0
    endloop
  endfacet
  facet normal 0 1 -0
    outer loop
      vertex -2 -6.92875 0
      vertex -2.9962 -6.92875 18
      vertex -2 -6.92875 18
    endloop
  endfacet
  facet normal 0 1 0
    outer loop
      vertex -2.9962 -6.92875 18
      vertex -2 -6.92875 0
      vertex -2.9962 -6.92875 0
    endloop
  endfacet
  facet normal 0.281735 0.959492 -0
    outer loop
      vertex -2.9962 -6.92875 0
      vertex -4.9079 -6.36742 18
      vertex -2.9962 -6.92875 18
    endloop
  endfacet
  facet normal 0.281735 0.959492 0
    outer loop
      vertex -4.9079 -6.36742 18
      vertex -2.9962 -6.92875 0
      vertex -4.9079 -6.36742 0
    endloop
  endfacet
  facet normal 0.755751 -0.654859 0
    outer loop
      vertex -7.88877 3.78448 18
      vertex -6.58402 5.29025 0
      vertex -6.58402 5.29025 18
    endloop
  endfacet
  facet normal 0.755751 -0.654859 0
    outer loop
      vertex -6.58402 5.29025 0
      vertex -7.88877 3.78448 18
      vertex -7.88877 3.78448 0
    endloop
  endfacet
  facet normal -0.909631 -0.415418 0
    outer loop
      vertex 8.71645 1.97213 0
      vertex 7.88877 3.78448 18
      vertex 7.88877 3.78448 0
    endloop
  endfacet
  facet normal -0.909631 -0.415418 0
    outer loop
      vertex 7.88877 3.78448 18
      vertex 8.71645 1.97213 0
      vertex 8.71645 1.97213 18
    endloop
  endfacet
  facet normal -0.989821 -0.142315 0
    outer loop
      vertex 9 0 0
      vertex 8.71645 1.97213 18
      vertex 8.71645 1.97213 0
    endloop
  endfacet
  facet normal -0.989821 -0.142315 0
    outer loop
      vertex 8.71645 1.97213 18
      vertex 9 0 0
      vertex 9 0 18
    endloop
  endfacet
  facet normal -0.755751 -0.654859 0
    outer loop
      vertex 7.88877 3.78448 0
      vertex 6.58402 5.29025 18
      vertex 6.58402 5.29025 0
    endloop
  endfacet
  facet normal -0.755751 -0.654859 0
    outer loop
      vertex 6.58402 5.29025 18
      vertex 7.88877 3.78448 0
      vertex 7.88877 3.78448 18
    endloop
  endfacet
  facet normal -0.755751 0.654859 0
    outer loop
      vertex 6.58402 -5.29025 0
      vertex 7.88877 -3.78448 18
      vertex 7.88877 -3.78448 0
    endloop
  endfacet
  facet normal -0.755751 0.654859 0
    outer loop
      vertex 7.88877 -3.78448 18
      vertex 6.58402 -5.29025 0
      vertex 6.58402 -5.29025 18
    endloop
  endfacet
  facet normal -0.540638 0.841255 0
    outer loop
      vertex 6.58402 -5.29025 0
      vertex 4.9079 -6.36742 18
      vertex 6.58402 -5.29025 18
    endloop
  endfacet
  facet normal -0.540638 0.841255 0
    outer loop
      vertex 4.9079 -6.36742 18
      vertex 6.58402 -5.29025 0
      vertex 4.9079 -6.36742 0
    endloop
  endfacet
  facet normal -0.909631 0.415418 0
    outer loop
      vertex 7.88877 -3.78448 0
      vertex 8.71645 -1.97213 18
      vertex 8.71645 -1.97213 0
    endloop
  endfacet
  facet normal -0.909631 0.415418 0
    outer loop
      vertex 8.71645 -1.97213 18
      vertex 7.88877 -3.78448 0
      vertex 7.88877 -3.78448 18
    endloop
  endfacet
  facet normal -0.540638 -0.841255 0
    outer loop
      vertex 4.9079 6.36742 0
      vertex 6.58402 5.29025 18
      vertex 4.9079 6.36742 18
    endloop
  endfacet
  facet normal -0.540638 -0.841255 -0
    outer loop
      vertex 6.58402 5.29025 18
      vertex 4.9079 6.36742 0
      vertex 6.58402 5.29025 0
    endloop
  endfacet
  facet normal -0.281735 0.959492 0
    outer loop
      vertex 4.9079 -6.36742 0
      vertex 2.9962 -6.92875 18
      vertex 4.9079 -6.36742 18
    endloop
  endfacet
  facet normal -0.281735 0.959492 0
    outer loop
      vertex 2.9962 -6.92875 18
      vertex 4.9079 -6.36742 0
      vertex 2.9962 -6.92875 0
    endloop
  endfacet
  facet normal -0.989821 0.142315 0
    outer loop
      vertex 8.71645 -1.97213 0
      vertex 9 0 18
      vertex 9 0 0
    endloop
  endfacet
  facet normal -0.989821 0.142315 0
    outer loop
      vertex 9 0 18
      vertex 8.71645 -1.97213 0
      vertex 8.71645 -1.97213 18
    endloop
  endfacet
  facet normal 0 -1 0
    outer loop
      vertex 2 6.92875 0
      vertex 2.9962 6.92875 18
      vertex 2 6.92875 18
    endloop
  endfacet
  facet normal 0 -1 -0
    outer loop
      vertex 2.9962 6.92875 18
      vertex 2 6.92875 0
      vertex 2.9962 6.92875 0
    endloop
  endfacet
  facet normal 0 1 -0
    outer loop
      vertex 2.9962 -6.92875 0
      vertex 2 -6.92875 18
      vertex 2.9962 -6.92875 18
    endloop
  endfacet
  facet normal 0 1 0
    outer loop
      vertex 2 -6.92875 18
      vertex 2.9962 -6.92875 0
      vertex 2 -6.92875 0
    endloop
  endfacet
  facet normal -0.281735 -0.959492 0
    outer loop
      vertex 2.9962 6.92875 0
      vertex 4.9079 6.36742 18
      vertex 2.9962 6.92875 18
    endloop
  endfacet
  facet normal -0.281735 -0.959492 -0
    outer loop
      vertex 4.9079 6.36742 18
      vertex 2.9962 6.92875 0
      vertex 4.9079 6.36742 0
    endloop
  endfacet
endsolid OpenSCAD_Model
